# xmcd
#
# Track frame offsets:
#	150
#	20123
#	35814
#	54789
#	71208
#	84158
#	101398
#	120258
#	142249
#	159847
#	169176
#	184498
#	199603
#	215032
#
# Disc length: 3122 seconds
#
# Revision: 3
# Processed by: cddbd v1.5.1PL0 Copyright (c) Steve Scherf et al.
# Submitted via: audiograbber 1.83.01
#
DISCID=c50c300e
DTITLE=Amy Rigby - Til The Wheels Fall Off
DYEAR=2003
DGENRE=Alt Country
TTITLE0=Why Do I
TTITLE1=Til The Wheels Fall Off
TTITLE2=Shopping Around
TTITLE3=Don't Ever Change
TTITLE4=Are We Gonna Ever Gonna Have Sex Again?
TTITLE5=The Deal
TTITLE6=O'Hare
TTITLE7=How People Are
TTITLE8=Event The Weak Survive
TTITLE9=Last Request
TTITLE10=Here We Go Again
TTITLE11=Breakup Boots
TTITLE12=Believe in You
TTITLE13=All The Way To Heaven
EXTD=
EXTT0=
EXTT1=
EXTT2=
EXTT3=
EXTT4=
EXTT5=
EXTT6=
EXTT7=
EXTT8=
EXTT9=
EXTT10=
EXTT11=
EXTT12=
EXTT13=
PLAYORDER=
